# Blender 4.4.0
# www.blender.org
o Cube
v -37.500000 -37.500000 -0.500000
v -37.500000 -37.500000 0.500000
v -37.500000 37.500000 -0.500000
v -37.500000 37.500000 0.500000
v 37.500000 -37.500000 -0.500000
v 37.500000 -37.500000 0.500000
v 37.500000 37.500000 -0.500000
v 37.500000 37.500000 0.500000
vn -0.0133 -0.0133 -0.9998
vn -0.0133 -0.0133 0.9998
vn -0.0133 0.0133 -0.9998
vn -0.0133 0.0133 0.9998
vn 0.0133 -0.0133 -0.9998
vn 0.0133 -0.0133 0.9998
vn 0.0133 0.0133 -0.9998
vn 0.0133 0.0133 0.9998
vt 5.187500 -18.250000
vt -4.187500 -8.875000
vt -4.187500 -18.250000
vt 5.187500 -8.875000
vt -4.187500 0.500000
vt 5.187500 0.500000
vt -4.187500 9.875000
vt 5.187500 9.875000
vt -4.187500 19.250000
vt -13.562500 9.875000
vt -13.562500 0.500000
vt 14.562500 0.500000
vt 5.187500 19.250000
vt 14.562500 9.875000
s 1
f 2/1/2 3/2/3 1/3/1
f 4/4/4 7/5/7 3/2/3
f 8/6/8 5/7/5 7/5/7
f 6/8/6 1/9/1 5/7/5
f 7/5/7 1/10/1 3/11/3
f 4/12/4 6/8/6 8/6/8
f 2/1/2 4/4/4 3/2/3
f 4/4/4 8/6/8 7/5/7
f 8/6/8 6/8/6 5/7/5
f 6/8/6 2/13/2 1/9/1
f 7/5/7 5/7/5 1/10/1
f 4/12/4 2/14/2 6/8/6
