# Blender 4.4.0
# www.blender.org
o Cylinder
v 0.000000 0.000000 -0.100000
v 0.000000 0.000000 0.003575
v 0.000000 1.800000 -0.100000
v 0.000000 1.500000 0.003575
v 0.688830 1.662983 -0.100000
v 0.574025 1.385819 0.003575
v 1.272792 1.272792 -0.100000
v 1.060660 1.060660 0.003575
v 1.662983 0.688830 -0.100000
v 1.385819 0.574025 0.003575
v 1.800000 0.000000 -0.100000
v 1.500000 0.000000 0.003575
v 1.662983 -0.688830 -0.100000
v 1.385819 -0.574025 0.003575
v 1.272792 -1.272792 -0.100000
v 1.060660 -1.060660 0.003575
v 0.688830 -1.662983 -0.100000
v 0.574025 -1.385819 0.003575
v 0.000000 -1.800000 -0.100000
v 0.000000 -1.500000 0.003575
v -0.688830 -1.662983 -0.100000
v -0.574025 -1.385819 0.003575
v -1.272792 -1.272792 -0.100000
v -1.060660 -1.060660 0.003575
v -1.662983 -0.688830 -0.100000
v -1.385819 -0.574025 0.003575
v -1.800000 0.000000 -0.100000
v -1.500000 0.000000 0.003575
v -1.662983 0.688830 -0.100000
v -1.385819 0.574025 0.003575
v -1.272792 1.272792 -0.100000
v -1.060660 1.060660 0.003575
v -0.688830 1.662983 -0.100000
v -0.574025 1.385819 0.003575
v 0.000000 1.650000 0.075145
v 0.631428 1.524401 0.075145
v 1.166726 1.166726 0.075145
v 1.524401 0.631428 0.075145
v 1.650000 0.000000 0.075145
v 1.524401 -0.631428 0.075145
v 1.166726 -1.166726 0.075145
v 0.631428 -1.524401 0.075145
v 0.000000 -1.650000 0.075145
v -0.631428 -1.524401 0.075145
v -1.166726 -1.166726 0.075145
v -1.524401 -0.631428 0.075145
v -1.650000 0.000000 0.075145
v -1.524401 0.631428 0.075145
v -1.166726 1.166726 0.075145
v -0.631428 1.524401 0.075145
vn -0.0000 -0.0000 -1.0000
vn -0.0000 -0.0000 1.0000
vn -0.0853 -0.4291 0.8992
vn -0.2430 -0.3637 0.8992
vn -0.3637 -0.2430 0.8992
vn -0.4291 -0.0853 0.8992
vn -0.4291 0.0853 0.8992
vn -0.3637 0.2430 0.8992
vn -0.2430 0.3637 0.8992
vn -0.0853 0.4291 0.8992
vn 0.0853 0.4291 0.8992
vn 0.2430 0.3637 0.8992
vn 0.3637 0.2430 0.8992
vn 0.4291 0.0853 0.8992
vn 0.4291 -0.0853 0.8992
vn 0.3637 -0.2430 0.8992
vn 0.2430 -0.3637 0.8992
vn 0.0853 -0.4291 0.8992
vn -0.1494 0.7510 0.6432
vn -0.4254 0.6367 0.6432
vn -0.6367 0.4254 0.6432
vn -0.7510 0.1494 0.6432
vn -0.7510 -0.1494 0.6432
vn -0.6367 -0.4254 0.6432
vn -0.4254 -0.6367 0.6432
vn -0.1494 -0.7510 0.6432
vn 0.1494 -0.7510 0.6432
vn 0.4254 -0.6367 0.6432
vn 0.6367 -0.4254 0.6432
vn 0.7510 -0.1494 0.6432
vn 0.7510 0.1494 0.6432
vn 0.6367 0.4254 0.6432
vn 0.4254 0.6367 0.6432
vn 0.1494 0.7510 0.6432
vt 0.750000 0.250000
vt 0.750000 0.490000
vt 0.841844 0.471731
vt 0.250000 0.250000
vt 0.341844 0.471731
vt 0.250000 0.490000
vt 1.000000 1.000000
vt 0.937500 0.750000
vt 1.000000 0.750000
vt 0.919706 0.419706
vt 0.419706 0.419706
vt 0.875000 1.000000
vt 0.875000 0.750000
vt 0.971731 0.341844
vt 0.471731 0.341844
vt 0.812500 0.750000
vt 0.990000 0.250000
vt 0.490000 0.250000
vt 0.812500 1.000000
vt 0.750000 0.750000
vt 0.971731 0.158156
vt 0.471731 0.158156
vt 0.750000 1.000000
vt 0.687500 0.750000
vt 0.919706 0.080294
vt 0.419706 0.080294
vt 0.625000 1.000000
vt 0.625000 0.750000
vt 0.841844 0.028269
vt 0.341844 0.028269
vt 0.562500 0.750000
vt 0.750000 0.010000
vt 0.250000 0.010000
vt 0.562500 1.000000
vt 0.500000 0.750000
vt 0.658156 0.028269
vt 0.158156 0.028269
vt 0.500000 1.000000
vt 0.437500 0.750000
vt 0.580294 0.080294
vt 0.080294 0.080294
vt 0.375000 1.000000
vt 0.375000 0.750000
vt 0.528269 0.158156
vt 0.028269 0.158156
vt 0.312500 0.750000
vt 0.510000 0.250000
vt 0.010000 0.250000
vt 0.312500 1.000000
vt 0.250000 0.750000
vt 0.528269 0.341844
vt 0.028269 0.341844
vt 0.250000 1.000000
vt 0.187500 0.750000
vt 0.580294 0.419706
vt 0.080294 0.419706
vt 0.125000 1.000000
vt 0.125000 0.750000
vt 0.658156 0.471731
vt 0.158156 0.471731
vt 0.062500 0.750000
vt 0.062500 1.000000
vt 0.000000 0.750000
vt 0.000000 0.500000
vt 0.062500 0.500000
vt 0.125000 0.500000
vt 0.187500 0.500000
vt 0.250000 0.500000
vt 0.312500 0.500000
vt 0.375000 0.500000
vt 0.437500 0.500000
vt 0.500000 0.500000
vt 0.562500 0.500000
vt 0.625000 0.500000
vt 0.687500 0.500000
vt 0.750000 0.500000
vt 0.812500 0.500000
vt 0.875000 0.500000
vt 0.937500 0.500000
vt 1.000000 0.500000
vt 0.937500 1.000000
vt 0.687500 1.000000
vt 0.437500 1.000000
vt 0.187500 1.000000
vt 0.000000 1.000000
s 0
f 1/1/1 3/2/1 5/3/1
f 2/4/2 6/5/2 4/6/2
f 4/7/3 36/8/3 35/9/3
f 1/1/1 5/3/1 7/10/1
f 2/4/2 8/11/2 6/5/2
f 36/8/4 8/12/4 37/13/4
f 1/1/1 7/10/1 9/14/1
f 2/4/2 10/15/2 8/11/2
f 8/12/5 38/16/5 37/13/5
f 1/1/1 9/14/1 11/17/1
f 2/4/2 12/18/2 10/15/2
f 10/19/6 39/20/6 38/16/6
f 1/1/1 11/17/1 13/21/1
f 2/4/2 14/22/2 12/18/2
f 12/23/7 40/24/7 39/20/7
f 1/1/1 13/21/1 15/25/1
f 2/4/2 16/26/2 14/22/2
f 40/24/8 16/27/8 41/28/8
f 1/1/1 15/25/1 17/29/1
f 2/4/2 18/30/2 16/26/2
f 16/27/9 42/31/9 41/28/9
f 1/1/1 17/29/1 19/32/1
f 2/4/2 20/33/2 18/30/2
f 18/34/10 43/35/10 42/31/10
f 1/1/1 19/32/1 21/36/1
f 2/4/2 22/37/2 20/33/2
f 20/38/11 44/39/11 43/35/11
f 1/1/1 21/36/1 23/40/1
f 2/4/2 24/41/2 22/37/2
f 44/39/12 24/42/12 45/43/12
f 1/1/1 23/40/1 25/44/1
f 2/4/2 26/45/2 24/41/2
f 24/42/13 46/46/13 45/43/13
f 1/1/1 25/44/1 27/47/1
f 2/4/2 28/48/2 26/45/2
f 26/49/14 47/50/14 46/46/14
f 1/1/1 27/47/1 29/51/1
f 2/4/2 30/52/2 28/48/2
f 28/53/15 48/54/15 47/50/15
f 1/1/1 29/51/1 31/55/1
f 2/4/2 32/56/2 30/52/2
f 48/54/16 32/57/16 49/58/16
f 1/1/1 31/55/1 33/59/1
f 2/4/2 34/60/2 32/56/2
f 32/57/17 50/61/17 49/58/17
f 1/1/1 33/59/1 3/2/1
f 2/4/2 4/6/2 34/60/2
f 34/62/18 35/63/18 50/61/18
f 50/61/19 3/64/19 33/65/19
f 31/66/20 50/61/20 33/65/20
f 48/54/21 31/66/21 29/67/21
f 47/50/22 29/67/22 27/68/22
f 46/46/23 27/68/23 25/69/23
f 23/70/24 46/46/24 25/69/24
f 44/39/25 23/70/25 21/71/25
f 43/35/26 21/71/26 19/72/26
f 42/31/27 19/72/27 17/73/27
f 15/74/28 42/31/28 17/73/28
f 40/24/29 15/74/29 13/75/29
f 39/20/30 13/75/30 11/76/30
f 38/16/31 11/76/31 9/77/31
f 7/78/32 38/16/32 9/77/32
f 36/8/33 7/78/33 5/79/33
f 35/9/34 5/79/34 3/80/34
f 4/7/3 6/81/3 36/8/3
f 36/8/4 6/81/4 8/12/4
f 8/12/5 10/19/5 38/16/5
f 10/19/6 12/23/6 39/20/6
f 12/23/7 14/82/7 40/24/7
f 40/24/8 14/82/8 16/27/8
f 16/27/9 18/34/9 42/31/9
f 18/34/10 20/38/10 43/35/10
f 20/38/11 22/83/11 44/39/11
f 44/39/12 22/83/12 24/42/12
f 24/42/13 26/49/13 46/46/13
f 26/49/14 28/53/14 47/50/14
f 28/53/15 30/84/15 48/54/15
f 48/54/16 30/84/16 32/57/16
f 32/57/17 34/62/17 50/61/17
f 34/62/18 4/85/18 35/63/18
f 50/61/19 35/63/19 3/64/19
f 31/66/20 49/58/20 50/61/20
f 48/54/21 49/58/21 31/66/21
f 47/50/22 48/54/22 29/67/22
f 46/46/23 47/50/23 27/68/23
f 23/70/24 45/43/24 46/46/24
f 44/39/25 45/43/25 23/70/25
f 43/35/26 44/39/26 21/71/26
f 42/31/27 43/35/27 19/72/27
f 15/74/28 41/28/28 42/31/28
f 40/24/29 41/28/29 15/74/29
f 39/20/30 40/24/30 13/75/30
f 38/16/31 39/20/31 11/76/31
f 7/78/32 37/13/32 38/16/32
f 36/8/33 37/13/33 7/78/33
f 35/9/34 36/8/34 5/79/34
